<svg width="114" height="114" viewBox="0 0 114 114" fill="none" xmlns="http://www.w3.org/2000/svg">
<rect width="114" height="114" rx="57" fill="#FBAE3C"/>
<path d="M48.3984 61.3135H51.5859C51.4199 62.8408 50.9827 64.2077 50.2744 65.4141C49.5661 66.6204 48.5645 67.5778 47.2695 68.2861C45.9746 68.9834 44.3587 69.332 42.4219 69.332C41.0052 69.332 39.7158 69.0664 38.5537 68.5352C37.4027 68.0039 36.4121 67.2513 35.582 66.2773C34.752 65.2923 34.11 64.1136 33.6562 62.7412C33.2135 61.3577 32.9922 59.8193 32.9922 58.126V55.7188C32.9922 54.0254 33.2135 52.4925 33.6562 51.1201C34.11 49.7367 34.7575 48.5524 35.5986 47.5674C36.4508 46.5824 37.4746 45.8242 38.6699 45.293C39.8652 44.7617 41.21 44.4961 42.7041 44.4961C44.5303 44.4961 46.0742 44.8392 47.3359 45.5254C48.5977 46.2116 49.5771 47.1634 50.2744 48.3809C50.9827 49.5872 51.4199 50.9873 51.5859 52.5811H48.3984C48.2435 51.4521 47.9557 50.4837 47.5352 49.6758C47.1146 48.8568 46.5169 48.2259 45.7422 47.7832C44.9674 47.3405 43.9548 47.1191 42.7041 47.1191C41.6305 47.1191 40.6842 47.3239 39.8652 47.7334C39.0573 48.1429 38.3766 48.724 37.8232 49.4766C37.2809 50.2292 36.8714 51.1312 36.5947 52.1826C36.318 53.234 36.1797 54.4017 36.1797 55.6855V58.126C36.1797 59.3102 36.3014 60.4225 36.5449 61.4629C36.7995 62.5033 37.1813 63.4163 37.6904 64.2021C38.1995 64.988 38.847 65.6077 39.6328 66.0615C40.4186 66.5042 41.3483 66.7256 42.4219 66.7256C43.7832 66.7256 44.8678 66.5098 45.6758 66.0781C46.4837 65.6465 47.0924 65.0267 47.502 64.2188C47.9225 63.4108 48.2214 62.4424 48.3984 61.3135ZM56.9648 44.8281H60.0693L67.9883 64.5342L75.8906 44.8281H79.0117L69.1836 69H66.7598L56.9648 44.8281ZM55.9521 44.8281H58.6914L59.1396 59.5703V69H55.9521V44.8281ZM77.2686 44.8281H80.0078V69H76.8203V59.5703L77.2686 44.8281Z" fill="black"/>
</svg>
