<svg xmlns="http://www.w3.org/2000/svg" width="12" height="12" viewBox="0 0 12 12" fill="none">
  <g clip-path="url(#clip0_16_6)">
    <path d="M4.5 9.49997C2 10.25 2 8.24997 1 7.99997M8 11V9.06497C8.01876 8.82655 7.98654 8.58687 7.90551 8.36186C7.82447 8.13686 7.69647 7.93168 7.53 7.75997C9.1 7.58497 10.75 6.98997 10.75 4.25997C10.7499 3.56188 10.4813 2.89057 10 2.38497C10.2279 1.77422 10.2118 1.09914 9.955 0.499969C9.955 0.499969 9.365 0.324969 8 1.23997C6.854 0.92938 5.646 0.92938 4.5 1.23997C3.135 0.324969 2.545 0.499969 2.545 0.499969C2.28819 1.09914 2.27207 1.77422 2.5 2.38497C2.01506 2.89432 1.74626 3.5717 1.75 4.27497C1.75 6.98497 3.4 7.57997 4.97 7.77497C4.8055 7.94495 4.67863 8.14767 4.59765 8.36993C4.51668 8.59219 4.4834 8.829 4.5 9.06497V11" stroke="white" stroke-linecap="round" stroke-linejoin="round"/>
  </g>
  <defs>
    <clipPath id="clip0_16_6">
      <rect width="12" height="12" fill="white"/>
    </clipPath>
  </defs>
</svg>